<?xml version="1.0" encoding="utf-8"?>
<svg id="master-artboard" viewBox="0 0 172.833740234375 337.80401611328125" version="1.1" xmlns="http://www.w3.org/2000/svg" x="0px" y="0px" style="enable-background:new 0 0 841.9 595.3;" width="172.833740234375px" height="337.80401611328125px">
<path d="M671.3,46.6L671.3,46.6L671.3,46.6C671.4,46.6,671.4,46.6,671.3,46.6C671.4,46.7,671.4,46.7,671.3,46.6&#10;&#9;&#9;&#9;C671.4,46.7,671.4,46.7,671.3,46.6C671.4,46.6,671.4,46.6,671.3,46.6z" transform="matrix(1, 0, 0, 1, -574.0885925292969, -26.38269329071045)"/><path d="M825.9,101.9l-0.1-2.5c-0.1-1.6-0.2-3.3-0.3-4.9c-0.2-3.3-0.4-6.5-0.7-9.8c-0.1-1.6-0.3-3.3-0.5-4.9&#10;&#9;&#9;&#9;c-0.2-1.6-0.5-3.3-0.8-4.9c-0.3-1.6-0.7-3.2-1.2-4.8c-0.4-1.6-0.9-3.1-1.5-4.7l-0.4-1.3c-0.1-0.2-0.2-0.4-0.2-0.7l-0.3-0.7&#10;&#9;&#9;&#9;c-0.1-0.2-0.2-0.4-0.3-0.7l-0.3-0.7c-0.2-0.4-0.4-0.9-0.7-1.3c-0.1-0.2-0.3-0.4-0.4-0.6l-0.5-0.6c-0.2-0.2-0.3-0.4-0.5-0.6&#10;&#9;&#9;&#9;c-0.2-0.2-0.4-0.4-0.6-0.5c-0.2-0.2-0.4-0.3-0.6-0.5c0,0,0,0,0,0l0,0c-0.3-0.5-0.6-1-0.9-1.4c-0.3-0.5-0.6-0.9-1-1.4&#10;&#9;&#9;&#9;c-0.7-0.9-1.4-1.8-2.1-2.6c-0.4-0.4-0.8-0.8-1.2-1.2c-0.4-0.4-0.8-0.8-1.2-1.2l-0.1-0.1c-0.2-0.1-0.3-0.4-0.3-0.8&#10;&#9;&#9;&#9;c0-0.2,0-0.4,0-0.6l0-0.2l0-0.1l0-0.1c0-0.1,0-0.2,0-0.2c0-0.3-0.2-0.7-0.5-0.8c-0.1,0-0.1-0.1-0.2-0.1c0,0-0.1,0-0.2,0l-0.1,0&#10;&#9;&#9;&#9;l-0.1,0l-3.1-0.6c-2.1-0.4-4.2-0.7-6.2-1.1c-2.1-0.4-4.2-0.7-6.3-1l-3.1-0.5c-1-0.2-2.1-0.3-3.1-0.5l-0.1,0l-0.1,0&#10;&#9;&#9;&#9;c-0.6,0-1.3,0.2-1.8,0.5c-0.1,0.1-0.3,0.2-0.4,0.3c-1.4-0.2-2.8-0.4-4.1-0.6c-1.9-0.3-3.8-0.5-5.7-0.8c-1.9-0.2-3.8-0.4-5.7-0.6&#10;&#9;&#9;&#9;l-5.7-0.6l-5.7-0.5c-1.9-0.1-3.8-0.3-5.7-0.4c-3.8-0.2-7.6-0.4-11.5-0.5l-1.1,0l0,0.1c-2.7-0.1-5.4-0.2-8.1-0.3&#10;&#9;&#9;&#9;c-3.1-0.1-6.2-0.2-9.3-0.2c-6.2-0.1-12.4-0.2-18.5-0.2l-18.5-0.1L666,38.8c-6.2,0-12.4,0-18.5,0.1c-6.2,0.1-12.4,0.2-18.5,0.5&#10;&#9;&#9;&#9;l-18.5,0.7c-0.8,0-1.6,0.1-2.3,0.1l-2.3,0c-1,0-2,0-3.1,0c0,0,0.1-0.1,0.1-0.1l0-0.1l0.1-0.1l0.1-0.2c0.1-0.2,0.1-0.5,0.2-0.7&#10;&#9;&#9;&#9;c0.2-0.9,0.5-1.8,0.7-2.7c0.2-0.9,0.4-1.8,0.6-2.7c0.4-1.8,0.7-3.7,1-5.5c0.1-0.9,0.3-1.8,0.4-2.8c0-0.1,0-0.2,0-0.4&#10;&#9;&#9;&#9;c0-0.1,0-0.2,0-0.4l0-0.1l0-0.1l0-0.2c0-0.1,0-0.3-0.1-0.4c0-0.1-0.1-0.3-0.2-0.5c-0.1-0.2-0.3-0.5-0.7-0.6&#10;&#9;&#9;&#9;c-0.3-0.1-0.6-0.1-0.7-0.1c-0.2,0-0.3,0-0.5,0.1c-0.5,0.1-0.9,0.2-1.4,0.4c-0.5,0.2-1,0.3-1.4,0.5c-0.9,0.4-1.7,1-2.5,1.7&#10;&#9;&#9;&#9;c-0.7,0.7-1.4,1.5-1.9,2.3c-0.5,0.8-0.9,1.7-1.3,2.6c-0.4,0.9-0.6,1.8-0.8,2.7c-0.2,0.9-0.4,1.8-0.6,2.8c-0.3,1.7-0.5,3.4-0.7,5.1&#10;&#9;&#9;&#9;l-0.1,0c-1.9-0.1-3.7-0.2-5.6-0.2l-5.6-0.2l-5.6-0.1l-0.7,0l-0.7,0l-1.4-0.1l-2.8-0.1c-3.7-0.2-7.4-0.3-11.1-0.4&#10;&#9;&#9;&#9;c-3.7-0.1-7.4,0-11.2,0.2c-1.8,0.1-3.7,0.2-5.6,0.4c-1.9,0.2-3.7,0.5-5.6,0.8c-1.8,0.3-3.7,0.6-5.5,1c-1.8,0.4-3.6,0.8-5.4,1.3&#10;&#9;&#9;&#9;c-1.8,0.4-3.6,0.9-5.4,1.5l-2.7,0.8l-2.7,0.7c-1.8,0.5-3.6,1-5.3,1.8c-0.9,0.4-1.7,0.8-2.4,1.4c-0.4,0.3-0.7,0.6-1,1&#10;&#9;&#9;&#9;c0,0.1-0.1,0.1-0.1,0.2l-0.1,0l-0.1,0l0,0l-0.2,0l0,0l0,0l0,0c-0.1,0-0.6,0.1-0.6,0.2c-0.4,0.2-0.6,0.4-0.8,0.6&#10;&#9;&#9;&#9;c-0.2,0.2-0.4,0.4-0.5,0.5c-0.3,0.4-0.6,0.7-0.9,1c-0.3,0.3-0.6,0.7-0.9,1.1c-0.3,0.4-0.5,0.8-0.8,1.1c-0.2,0.4-0.5,0.8-0.7,1.2&#10;&#9;&#9;&#9;c-0.2,0.4-0.4,0.8-0.6,1.1c-0.1,0.1-0.1,0.1-0.2,0.2c-0.8,0.8-1.6,1.6-2.3,2.5c-0.4,0.4-0.7,0.8-1.1,1.3l-0.5,0.7l-0.5,0.7&#10;&#9;&#9;&#9;c-0.7,0.9-1.2,1.9-1.8,2.9c-1.1,2-2.1,4-3,6.1c-0.9,2.1-1.8,4.2-2.6,6.3c-0.4,1-0.8,2.2-1.1,3.3c-0.3,1.1-0.6,2.2-0.8,3.3&#10;&#9;&#9;&#9;c-0.2,1.1-0.4,2.2-0.6,3.4l-0.5,3.3c-0.4,2.2-0.7,4.5-0.9,6.7c-0.2,2.2-0.3,4.5-0.2,6.8c-0.1,2.3,0,4.6,0.2,6.8&#10;&#9;&#9;&#9;c0.2,2.3,0.5,4.5,0.9,6.7l0.5,3.3c0.2,1.1,0.4,2.2,0.6,3.4c0.2,1.1,0.5,2.2,0.8,3.3c0.2,0.6,0.3,1.1,0.5,1.6&#10;&#9;&#9;&#9;c0.2,0.6,0.4,1.1,0.6,1.6c0.8,2.1,1.6,4.2,2.6,6.3c0.9,2.1,1.9,4.1,3,6.1c0.3,0.5,0.6,1,0.9,1.5c0.3,0.5,0.6,1,0.9,1.4l0.5,0.7&#10;&#9;&#9;&#9;l0.5,0.7c0.4,0.4,0.7,0.9,1.1,1.3c0.7,0.8,1.5,1.7,2.3,2.5c0.3,0.2,0.5,0.5,0.8,0.7c0.1,0.2,0.2,0.3,0.3,0.5&#10;&#9;&#9;&#9;c0.2,0.4,0.5,0.8,0.7,1.2c0.3,0.4,0.5,0.8,0.8,1.1c0.3,0.4,0.6,0.7,0.9,1c0.3,0.3,0.6,0.7,0.9,1c0.2,0.2,0.3,0.3,0.5,0.5&#10;&#9;&#9;&#9;c0.2,0.2,0.4,0.3,0.7,0.5c0.1,0.1,0.4,0.2,0.5,0.2l0,0l0,0l0,0l0.2,0l0,0l0,0c0.1,0.2,0.1,0.3,0.2,0.5c0.3,0.4,0.6,0.7,1,1&#10;&#9;&#9;&#9;c0.7,0.6,1.6,1,2.4,1.4c1.7,0.8,3.5,1.3,5.3,1.8l2.7,0.7l2.7,0.8c1.8,0.5,3.6,1,5.4,1.5c1.8,0.5,3.6,0.9,5.4,1.3&#10;&#9;&#9;&#9;c1.8,0.4,3.7,0.7,5.5,1c1.8,0.3,3.7,0.6,5.6,0.8c1.9,0.2,3.7,0.3,5.6,0.4c3.7,0.2,7.5,0.2,11.2,0.2c3.7,0,7.4-0.2,11.1-0.4&#10;&#9;&#9;&#9;l2.8-0.1l1.4-0.1l0.7,0l0.7,0l5.6-0.1l5.6-0.2c1.9-0.1,3.7-0.1,5.6-0.2l0.1,0c0.2,1.7,0.4,3.4,0.7,5.1c0.1,0.9,0.4,1.8,0.6,2.8&#10;&#9;&#9;&#9;c0.2,0.9,0.5,1.8,0.8,2.7c0.3,0.9,0.7,1.8,1.3,2.6c0.5,0.9,1.2,1.6,1.9,2.3c0.7,0.7,1.6,1.2,2.5,1.7c0.5,0.2,0.9,0.4,1.4,0.5&#10;&#9;&#9;&#9;c0.5,0.2,0.9,0.3,1.4,0.4c0.1,0,0.3,0.1,0.5,0.1c0.2,0,0.4,0,0.7-0.1c0.3-0.1,0.5-0.4,0.7-0.6c0.1-0.2,0.2-0.4,0.2-0.5&#10;&#9;&#9;&#9;c0-0.2,0.1-0.3,0.1-0.4l0-0.2l0-0.1l0-0.1c0-0.2,0-0.3,0-0.4c0-0.1,0-0.3,0-0.4c-0.1-1-0.2-1.9-0.4-2.8c-0.3-1.8-0.6-3.7-1-5.5&#10;&#9;&#9;&#9;c-0.2-0.9-0.4-1.8-0.6-2.7c-0.2-0.9-0.4-1.8-0.7-2.7c-0.1-0.2-0.1-0.5-0.2-0.7l-0.1-0.2l-0.1-0.1l0-0.1c0,0,0-0.1-0.1-0.1&#10;&#9;&#9;&#9;c1,0,2,0,3.1,0l2.3,0c0.8,0,1.5,0,2.3,0.1l18.5,0.7c6.2,0.2,12.4,0.4,18.5,0.5c6.2,0.1,12.4,0.1,18.5,0.1l18.5-0.1l18.5-0.1&#10;&#9;&#9;&#9;c6.2,0,12.4-0.1,18.5-0.2c3.1-0.1,6.2-0.2,9.3-0.2c2.7-0.1,5.4-0.2,8.1-0.3l0,0.1l1.1,0c3.8-0.1,7.7-0.2,11.5-0.5&#10;&#9;&#9;&#9;c1.9-0.1,3.8-0.3,5.7-0.4l5.7-0.5l5.7-0.6c1.9-0.2,3.8-0.4,5.7-0.6c1.9-0.2,3.8-0.5,5.7-0.8c1.4-0.2,2.8-0.4,4.1-0.6&#10;&#9;&#9;&#9;c0.1,0.1,0.2,0.2,0.4,0.3c0.5,0.4,1.2,0.6,1.8,0.5l0.1,0l0.1,0c1-0.1,2.1-0.3,3.1-0.5l3.1-0.5c2.1-0.3,4.2-0.6,6.3-1&#10;&#9;&#9;&#9;c2.1-0.4,4.2-0.7,6.2-1.1l3.1-0.6l0.1,0l0.1,0c0.1,0,0.1,0,0.2,0c0.1,0,0.2-0.1,0.2-0.1c0.3-0.2,0.4-0.5,0.5-0.8&#10;&#9;&#9;&#9;c0-0.1,0-0.2,0-0.2l0-0.1l0-0.1l0-0.2c0-0.2,0-0.4,0-0.6c0-0.4,0.1-0.7,0.3-0.8l0.1-0.1c0.4-0.4,0.8-0.8,1.2-1.2&#10;&#9;&#9;&#9;c0.4-0.4,0.8-0.8,1.2-1.2c0.8-0.8,1.5-1.7,2.1-2.6c0.3-0.5,0.7-0.9,1-1.4c0.3-0.5,0.6-1,0.9-1.4l0,0c0,0,0,0,0,0&#10;&#9;&#9;&#9;c0.2-0.2,0.4-0.3,0.6-0.5c0.2-0.2,0.4-0.3,0.6-0.5c0.2-0.2,0.4-0.4,0.5-0.6l0.5-0.6c0.1-0.2,0.3-0.4,0.4-0.6&#10;&#9;&#9;&#9;c0.3-0.4,0.5-0.8,0.7-1.3l0.3-0.7c0.1-0.2,0.2-0.4,0.3-0.7l0.3-0.7c0.1-0.2,0.2-0.4,0.2-0.7l0.4-1.3c0.6-1.6,1.1-3.1,1.5-4.7&#10;&#9;&#9;&#9;c0.4-1.6,0.8-3.2,1.2-4.8c0.3-1.6,0.6-3.3,0.8-4.9c0.2-1.6,0.4-3.3,0.5-5l0.4-4.9l0.3-4.9c0.1-1.6,0.2-3.3,0.3-4.9&#10;&#9;&#9;&#9;c0.1-1.6,0.1-3.3,0.1-5C825.9,103.6,825.9,102.8,825.9,101.9z M805,47.8l2.6,0.3c0,0.2,0,0.4,0,0.7c0,0.3,0.1,0.7,0.3,1&#10;&#9;&#9;&#9;c0.2,0.3,0.4,0.6,0.7,0.9c0.4,0.3,0.8,0.7,1.2,1c0.4,0.4,0.8,0.7,1.2,1.1c0.8,0.7,1.6,1.5,2.3,2.3c0.4,0.4,0.7,0.8,1.1,1.2&#10;&#9;&#9;&#9;c0.1,0.1,0.2,0.3,0.3,0.4c-0.1,0-0.2-0.1-0.3-0.1c-0.1,0-0.3-0.1-0.4-0.1c-0.2,0-0.3-0.1-0.5-0.1l0.1,0l-1-0.1&#10;&#9;&#9;&#9;c-0.6-0.8-1.2-1.5-1.9-2.2c-0.5-0.5-1-1-1.6-1.5c-0.6-0.5-1.1-0.9-1.7-1.4c-0.3-0.2-0.6-0.4-0.9-0.6c-0.3-0.2-0.6-0.4-0.9-0.6&#10;&#9;&#9;&#9;l-1-0.5c-0.3-0.2-0.7-0.3-1-0.5c-0.7-0.3-1.4-0.6-2.1-0.8c-0.7-0.2-1.5-0.4-2.2-0.6c-1.4-0.3-2.8-0.7-4.2-1l-0.4-0.1&#10;&#9;&#9;&#9;c1.3,0.2,2.6,0.4,3.9,0.5C800.8,47.2,802.9,47.5,805,47.8z M762.9,42.6l5.7,0.3l5.7,0.4c3.2,0.2,6.4,0.4,9.6,0.7&#10;&#9;&#9;&#9;c-0.1,0.2-0.3,0.4-0.4,0.5c-0.3,0.5-0.2,1.2,0.2,1.6c0.1,0.1,0.2,0.2,0.3,0.3c0.1,0,0.1,0.1,0.2,0.1c0,0,0.1,0,0.1,0l0,0l0.2,0&#10;&#9;&#9;&#9;l0.5,0.1l1.1,0.2c1.4,0.3,2.8,0.6,4.3,0.8l4.3,0.8c1.4,0.3,2.8,0.5,4.3,0.7c0.7,0.1,1.4,0.3,2,0.4c0.7,0.2,1.3,0.4,2,0.6&#10;&#9;&#9;&#9;c0.3,0.1,0.7,0.2,1,0.4l1,0.4c0.3,0.1,0.6,0.3,0.9,0.5c0.3,0.2,0.6,0.3,0.9,0.5c0.6,0.3,1.2,0.7,1.8,1.1c0.6,0.4,1.2,0.8,1.7,1.3&#10;&#9;&#9;&#9;c0.6,0.4,1.1,0.9,1.6,1.4c0.1,0.1,0.2,0.2,0.3,0.3l-18.8-2.5c-1.7-1.1-3.6-1.9-5.5-2.6c-2-0.7-4-1.2-6.1-1.6&#10;&#9;&#9;&#9;c-4.1-0.7-8.2-1.1-12.3-1.3l-6.1-0.3c-1,0-2-0.1-3-0.2l-3.1-0.2c-1.8-0.1-3.6-0.3-5.5-0.4c0-0.9,0-1.8,0-2.6c0-0.6,0-1.2-0.1-1.8&#10;&#9;&#9;&#9;c0-0.2,0-0.3,0-0.5c1.8,0.1,3.6,0.1,5.5,0.2L762.9,42.6z M793.7,56.1c0.3,0.3,0.7,0.6,1,0.9c0.6,0.6,1.3,1.3,1.9,2&#10;&#9;&#9;&#9;c0.3,0.3,0.6,0.7,0.9,1l0.8,1.1l0.8,1.1c0.3,0.4,0.5,0.8,0.8,1.1c0.2,0.4,0.5,0.8,0.7,1.2c0.2,0.4,0.5,0.8,0.7,1.2l0.6,1.2&#10;&#9;&#9;&#9;c0.2,0.4,0.4,0.8,0.6,1.2c0.2,0.4,0.4,0.8,0.5,1.2l0.5,1.3c0.2,0.4,0.3,0.8,0.4,1.3l0.4,1.3l0,0.1l0,0.1c0.2,0.5,0.4,1.2,0.6,1.8&#10;&#9;&#9;&#9;c0.2,0.6,0.4,1.2,0.5,1.9c0.3,1.3,0.6,2.5,0.8,3.8c0.1,0.6,0.2,1.3,0.3,1.9c0.1,0.6,0.2,1.3,0.3,1.9c0.1,0.6,0.2,1.3,0.2,1.9&#10;&#9;&#9;&#9;c0.1,0.7,0.1,1.3,0.2,2c0.1,1.3,0.2,2.6,0.2,3.9c0,0.7,0,1.3,0,2l0,1l0,1l0,8l0,8c0,1.3,0,2.6-0.1,3.9c-0.1,1.3-0.1,2.6-0.2,3.9&#10;&#9;&#9;&#9;c0,0.7-0.1,1.3-0.2,2c-0.1,0.7-0.1,1.3-0.2,1.9c-0.1,0.6-0.2,1.3-0.3,1.9c-0.1,0.6-0.2,1.3-0.3,1.9c-0.2,1.3-0.5,2.6-0.8,3.8&#10;&#9;&#9;&#9;c-0.2,0.6-0.3,1.2-0.5,1.9c-0.2,0.6-0.4,1.2-0.6,1.8l0,0.1l0,0.1l-0.4,1.3c-0.1,0.4-0.2,0.9-0.4,1.3l-0.5,1.3&#10;&#9;&#9;&#9;c-0.2,0.4-0.4,0.8-0.5,1.2c-0.2,0.4-0.4,0.8-0.6,1.2l-0.6,1.2c-0.2,0.4-0.5,0.8-0.7,1.2c-0.2,0.4-0.5,0.8-0.7,1.2&#10;&#9;&#9;&#9;c-0.3,0.4-0.5,0.8-0.8,1.1l-0.8,1.1l-0.8,1.1c-0.3,0.4-0.6,0.7-0.9,1c-0.6,0.7-1.2,1.3-1.9,2c-0.3,0.3-0.6,0.6-1,0.9&#10;&#9;&#9;&#9;c-0.1,0.1-0.3,0.2-0.4,0.4l-0.3,0l-0.2,0l-0.2,0.1c-0.1,0-0.2,0.1-0.2,0.1l-6.5-0.1l-7.4-0.1l-7.4-0.1c-2.1,0-4.2,0-6.4-0.1&#10;&#9;&#9;&#9;c-0.1-0.3-0.2-0.5-0.4-0.8c-0.2-0.3-0.6-0.4-0.8-0.4l-0.2-0.1l-0.5-0.1l-1.9-0.4c-1.3-0.3-2.5-0.6-3.8-0.9l-0.9-0.2l-0.5-0.1&#10;&#9;&#9;&#9;c-0.1,0,0,0-0.2,0c0,0,0,0-0.1,0c0.1-0.7,0.2-1.6,0.4-2.9c0.3-2.5,0.7-6.2,1.1-10.5c0.2-2.2,0.4-4.5,0.6-7&#10;&#9;&#9;&#9;c0.2-2.5,0.4-5.1,0.6-7.9c0.1-1.4,0.2-2.8,0.2-4.2c0.1-1.4,0.2-2.8,0.2-4.3c0.1-2.9,0.2-5.8,0.2-8.7c0-1.5,0-2.9-0.1-4.4&#10;&#9;&#9;&#9;c0-1.5-0.1-2.9-0.1-4.4c0-1.4-0.1-2.9-0.2-4.3c-0.1-1.4-0.2-2.8-0.2-4.2c-0.2-2.7-0.4-5.4-0.6-7.9c-0.2-2.5-0.4-4.9-0.6-7&#10;&#9;&#9;&#9;c-0.4-4.4-0.8-8-1.1-10.5c-0.1-1.2-0.3-2.2-0.4-2.9c0,0,0.1,0,0.1,0c0.2,0,0.1,0,0.2,0l0.5-0.1l0.9-0.2c1.3-0.3,2.5-0.6,3.8-0.9&#10;&#9;&#9;&#9;l1.9-0.4l0.5-0.1l0.2-0.1c0.2,0,0.6-0.2,0.8-0.4c0.2-0.2,0.3-0.5,0.4-0.8c2.1,0,4.3,0,6.4-0.1l7.4-0.1l7.4-0.1l6.5-0.1&#10;&#9;&#9;&#9;c0.1,0,0.2,0.1,0.2,0.1l0.2,0.1l0.2,0l0.3,0C793.4,55.9,793.5,56,793.7,56.1z M751.4,159.7c-0.1-0.1-0.1-0.2-0.2-0.3&#10;&#9;&#9;&#9;c-0.2-0.3-0.4-0.7-0.6-1c-0.4-0.6-0.9-1.2-1.4-1.8c-0.3-0.4-0.7-0.8-1.1-1.3c1,0,2,0.1,3,0.1l0.2,0c0,0,0.4,0,0.4,0l0.5,0l1-0.1&#10;&#9;&#9;&#9;l2-0.1c1.3-0.1,2.6-0.2,3.9-0.2c1.3-0.1,2.6-0.2,3.9-0.2c-0.1,0,0.2,0,0.2,0c0,0,0.2,0,0.4-0.1c0.3-0.1,0.6-0.4,0.7-0.7&#10;&#9;&#9;&#9;c0.1-0.3,0.2-0.6,0.2-0.9c2.1,0.2,4.2,0.3,6.3,0.5l7.4,0.5l7.4,0.5l4.1,0.2c-0.8,0.4-1.7,0.8-2.6,1.1c-1.9,0.6-3.8,1.1-5.8,1.5&#10;&#9;&#9;&#9;c-3.9,0.7-8,1-12,1.3l-6.1,0.3c-1,0.1-2.1,0.1-3.1,0.2l-3.1,0.2L751.4,159.7z M597.5,167.7c-1.4,0-2.8,0.1-4.2,0.3&#10;&#9;&#9;&#9;c0-0.1,0-0.1,0-0.2c0-0.1,0-0.2,0-0.2c0-0.2-0.1-0.3-0.1-0.5c-0.1-0.2-0.1-0.3-0.2-0.5c-0.1-0.2-0.2-0.3-0.3-0.4&#10;&#9;&#9;&#9;c-0.1-0.1-0.2-0.3-0.4-0.4c-0.1-0.1-0.3-0.2-0.4-0.3c-0.2-0.1-0.3-0.1-0.5-0.2c-0.2,0-0.3-0.1-0.5-0.1l0,0l0,0&#10;&#9;&#9;&#9;c-1.8,0-3.7,0.1-5.5,0.1c0,0,0,0,0-0.1c0-0.1,0-0.3,0-0.4c0-0.3,0.1-0.5,0.2-0.7c0.1-0.5,0.2-0.8,0.3-1.1c0.1-0.2,0.1-0.3,0.2-0.5&#10;&#9;&#9;&#9;c1.1-0.2,2.2-0.4,3.3-0.6c3.9-0.7,8.1-1.4,12.6-2.2l-1.6,4.2c-0.7,0-1.6,0.1-2.2,0.7c-0.3,0.3-0.5,0.7-0.7,1.1&#10;&#9;&#9;&#9;c-0.1,0.4-0.1,0.8-0.1,1.2C597.4,167.1,597.5,167.4,597.5,167.7z M585.4,164.9c0,0.1,0,0.3-0.1,0.4c-0.1,0-0.2,0-0.4,0&#10;&#9;&#9;&#9;c-2.3-0.2-5.7-0.4-9.9-0.7c0.5-0.1,1-0.2,1.5-0.3c1.3-0.2,2.6-0.5,4-0.7c1.8-0.3,3.6-0.7,5.6-1c0,0.1-0.1,0.3-0.2,0.5&#10;&#9;&#9;&#9;c-0.1,0.3-0.2,0.7-0.4,1.1C585.5,164.4,585.5,164.6,585.4,164.9z M600.5,164.2l0.1,0l0-0.1l1.5-3.9l0,0l25.9-3.9&#10;&#9;&#9;&#9;c0.1,0,9.3-0.4,20.1-0.7l24-0.6l0,0c1.6,0,3.2-0.1,4.8-0.1c-0.1,0.2-0.2,0.5-0.4,0.7c-0.2,0.4-0.5,0.9-0.9,1.5&#10;&#9;&#9;&#9;c-0.3,0.5-0.7,1.1-1.1,1.6c-0.8,1.1-1.7,2.1-2.3,2.8c-0.3,0.3-0.6,0.6-0.8,0.8c0,0,0.1-0.1,0.1-0.1c0,0,0,0,0,0c0,0,0,0,0,0&#10;&#9;&#9;&#9;c0,0,0,0,0,0l0.4,1.1c-0.1,0-0.2,0-0.3,0l-24.5,0.6l-24.5,0.5l-24.2,0.5C599.1,164.4,599.8,164.3,600.5,164.2z M606.6,158.9&#10;&#9;&#9;&#9;c1.4-0.2,2.8-0.5,4.3-0.7c3.6-0.6,7.4-1.1,11.3-1.6L606.6,158.9z M673.8,162.6c0.5-0.9,1.2-2.1,1.7-3.4c0.3-0.6,0.5-1.3,0.8-1.9&#10;&#9;&#9;&#9;c0.2-0.6,0.4-1.2,0.6-1.7c0.1-0.3,0.2-0.6,0.2-0.9c1,0,2,0,3-0.1c0.5,0,1,0,1.5,0c0.1,0,0.1,0.1,0.2,0.1c0,0,0,0,0,0&#10;&#9;&#9;&#9;c4.3-0.1,8.6-0.1,13-0.2c0.1,0,0.3,0,0.4,0c0.2,0,0.3,0,0.5,0c10.5,0,21.1,0,31.7,0c1.2,0,2.5,0,3.7,0l-6.2,6.6&#10;&#9;&#9;&#9;c-1.4,0.1-2.8,0.1-4.3,0.2l-12.2,0.5c-4.1,0.2-8.2,0.3-12.2,0.5c-7.5,0.3-15.1,0.5-22.6,0.7C673.6,163,673.7,162.8,673.8,162.6z&#10;&#9;&#9;&#9; M749.9,159.8L749.9,159.8c-2,0.1-19.7,1.1-22.3,1.3l3.6-6.4c1.4,0,2.7,0,4.1,0.1c2.6,0.1,5.3,0.2,7.9,0.3c0.6,0,1.1,0.1,1.7,0.1&#10;&#9;&#9;&#9;c1,0.8,2,1.7,3,2.6c0.5,0.5,1.1,1,1.6,1.5C749.7,159.5,749.8,159.6,749.9,159.8L749.9,159.8z M762.9,152.5L762.9,152.5&#10;&#9;&#9;&#9;C762.9,152.5,762.9,152.5,762.9,152.5z M754.9,149.9l-1.9-0.1c-2.6-0.2-5.1-0.3-7.6-0.4c-2.5-0.1-5.1-0.2-7.6-0.3&#10;&#9;&#9;&#9;c-10-0.3-19.6-0.2-28.7-0.2c-9.1,0.1-17.8,0.2-25.7,0.4c-8,0.1-15.3,0.4-21.7,0.6c-6.5,0.2-12.1,0.4-16.8,0.6&#10;&#9;&#9;&#9;c-4.6,0.2-8.3,0.3-10.8,0.4c-1.2,0.1-2.1,0.1-2.7,0.1l0-0.1c-0.6-3.9-1.1-7.7-1.6-11.6c-0.5-3.9-1-7.7-1.4-11.6&#10;&#9;&#9;&#9;c-0.2-1.9-0.4-3.9-0.6-5.8c-0.2-1.9-0.4-3.9-0.5-5.8c-0.2-1.9-0.3-3.9-0.4-5.8l-0.1-2.9l-0.1-2.9l0.1-2.9l0.1-2.9&#10;&#9;&#9;&#9;c0-1,0.1-1.9,0.2-2.9c0.1-1,0.1-1.9,0.2-2.9c0.2-1.9,0.3-3.9,0.5-5.8c0.2-1.9,0.4-3.9,0.6-5.8c0.4-3.9,0.9-7.7,1.4-11.6&#10;&#9;&#9;&#9;c0.5-3.9,1-7.7,1.6-11.6l0-0.1c0.6,0,1.6,0.1,2.7,0.1c2.5,0.1,6.1,0.3,10.8,0.4c4.6,0.2,10.3,0.4,16.8,0.6&#10;&#9;&#9;&#9;c6.5,0.2,13.8,0.4,21.7,0.6c8,0.2,16.6,0.3,25.7,0.4c9.1,0,18.8,0.1,28.7-0.2c2.5,0,5-0.2,7.6-0.3c2.5-0.1,5.1-0.2,7.6-0.4&#10;&#9;&#9;&#9;l1.9-0.1l0.2,0c0,0,0,0,0,0c0,0.7,0,1.7,0,2.9c0,1.3,0.1,2.8,0.1,4.6c0,1.8,0.1,3.8,0.1,6c0.1,4.4,0.3,9.5,0.4,14.9&#10;&#9;&#9;&#9;c0.1,2.7,0.2,5.6,0.2,8.4c0,1.4,0.1,2.9,0.1,4.3c0,1.4,0,2.9,0.1,4.3c0,2.9-0.1,5.8-0.2,8.7c-0.1,2.9-0.2,5.7-0.2,8.4&#10;&#9;&#9;&#9;c-0.2,5.5-0.3,10.6-0.4,14.9c-0.1,4.4-0.2,8-0.2,10.6c0,1.2,0,2.2,0,2.9c0,0,0,0,0,0L754.9,149.9z M624.2,107.4l0.1,3&#10;&#9;&#9;&#9;c0.1,2,0.3,3.9,0.4,5.9c0.2,2,0.4,3.9,0.6,5.9c0.2,1.9,0.4,3.9,0.6,5.8c0.5,3.9,0.9,7.8,1.5,11.7c0.5,3.5,1,6.9,1.5,10.4&#10;&#9;&#9;&#9;c-4.7,0.7-9.5,1.4-14.2,2.1l-15.2,2.3c-2.5,0.4-5.1,0.8-7.6,1.2c-2.5,0.4-5.1,0.7-7.6,1c-2.5,0.3-5.1,0.5-7.6,0.6&#10;&#9;&#9;&#9;c-1.3,0.1-2.5,0.1-3.8,0.1c-1.3,0-2.6,0.1-3.8,0.1c-2.5,0-5.1-0.2-7.1-1.4c-2-1.2-3.2-3.4-3.9-5.8c-0.6-2.4-0.8-4.9-1.1-7.5&#10;&#9;&#9;&#9;l-0.9-7.6c-1.2-10.2-2.4-20.3-2.7-30.6c0.4-10.2,1.5-20.4,2.7-30.6l0.9-7.6c0.3-2.6,0.5-5.1,1.1-7.5c0.2-0.6,0.4-1.2,0.6-1.7&#10;&#9;&#9;&#9;c0.2-0.5,0.5-1.1,0.8-1.6c0.2-0.3,0.4-0.6,0.5-0.8c0.2-0.2,0.4-0.4,0.6-0.6c0.2-0.2,0.4-0.4,0.7-0.6c0.2-0.2,0.5-0.3,0.7-0.5&#10;&#9;&#9;&#9;c2-1.2,4.6-1.4,7.1-1.4c1.3,0,2.6,0,3.8,0.1c1.3,0,2.5,0.1,3.8,0.1c2.5,0.1,5.1,0.4,7.6,0.6c2.5,0.3,5.1,0.6,7.6,1&#10;&#9;&#9;&#9;c2.5,0.4,5.1,0.8,7.6,1.2l15.2,2.3c4.7,0.7,9.4,1.4,14.2,2.1c-1.1,7.3-2.2,14.7-3,22c-0.2,1.9-0.4,3.9-0.6,5.8&#10;&#9;&#9;&#9;c-0.2,2-0.4,3.9-0.6,5.9c-0.1,1-0.2,2-0.2,2.9c-0.1,1-0.2,2-0.2,2.9l-0.1,3l-0.1,2.9L624.2,107.4z M629,58.8&#10;&#9;&#9;&#9;c-4.7-0.9-9.4-1.7-14.1-2.5l-15.2-2.7c-2.5-0.4-5-0.9-7.6-1.3c-2.5-0.4-5.1-0.8-7.6-1.1c-2.6-0.3-5.1-0.6-7.7-0.8&#10;&#9;&#9;&#9;c-1.3-0.1-2.6-0.2-3.9-0.2c-1.3,0-2.6-0.1-3.9-0.1c-1.3,0-2.6,0-4,0.2c-1.3,0.2-2.7,0.6-3.9,1.3c-0.3,0.1-0.5,0.3-0.7,0.5&#10;&#9;&#9;&#9;c-1.3-0.3-2.6-0.7-3.9-1c-0.8-0.2-1.6-0.3-2.5-0.5c-0.4-0.1-0.8-0.1-1.1-0.2c1.2-0.3,2.3-0.5,3.5-0.6c1.6-0.2,3.3-0.4,4.9-0.5&#10;&#9;&#9;&#9;c0.8-0.1,1.6-0.1,2.5-0.1c0.8,0,1.6,0,2.5,0c1.6,0,3.3,0.1,4.9,0.1l2.5,0.2c0.8,0,1.6,0.1,2.5,0.2l2.5,0.2l2.4,0.3&#10;&#9;&#9;&#9;c1.6,0.2,3.3,0.5,4.9,0.7c1.6,0.2,3.3,0.6,4.9,0.8l19.6,3.5l9.8,1.7l8.7,1.5C629,58.7,629,58.8,629,58.8z M552.5,51l0.1-0.1&#10;&#9;&#9;&#9;c0.1,0,0.2,0,0.3,0c0.4,0,0.8,0.1,1.2,0.1c0.8,0.1,1.7,0.2,2.5,0.4c1.3,0.2,2.6,0.5,3.9,0.8c0,0-0.1,0.1-0.1,0.1&#10;&#9;&#9;&#9;c-0.3,0.2-0.5,0.5-0.8,0.7c-0.3,0.2-0.5,0.5-0.7,0.8c-0.2,0.3-0.4,0.5-0.6,0.8c-0.8,1.2-1.2,2.5-1.6,3.8c-0.7,2.6-0.9,5.2-1.2,7.7&#10;&#9;&#9;&#9;l-0.9,7.6c-1.3,10.2-2.5,20.4-2.9,30.7l0,0l0,0c0.4,10.3,1.7,20.5,2.9,30.7l0.9,7.6c0.3,2.5,0.5,5.1,1.2,7.7&#10;&#9;&#9;&#9;c0.2,0.6,0.4,1.3,0.7,1.9c0.1,0.3,0.3,0.6,0.4,0.9c0.2,0.3,0.3,0.5,0.5,0.9c0.6,0.9,1.3,1.8,2.2,2.4c-1.3,0.3-2.6,0.6-3.9,0.8&#10;&#9;&#9;&#9;c-0.8,0.1-1.6,0.3-2.5,0.4c-0.4,0.1-0.8,0.1-1.2,0.1c-0.1,0-0.2,0-0.3,0l-0.1-0.1c-1.7-4.1-2.8-8.5-3.7-12.9&#10;&#9;&#9;&#9;c-0.4-2.2-0.8-4.4-1.2-6.7l-1-6.7c-0.3-2.2-0.6-4.5-0.9-6.7c-0.3-2.2-0.5-4.5-0.7-6.8c-0.4-4.5-0.6-9-0.6-13.6&#10;&#9;&#9;&#9;c0-2.2,0.1-4.5,0.2-6.8c0.1-2.3,0.2-4.5,0.4-6.8c0.4-4.5,0.9-9,1.6-13.5l1-6.7c0.4-2.2,0.7-4.5,1.2-6.7&#10;&#9;&#9;&#9;C549.7,59.5,550.8,55.2,552.5,51z M554.1,158.1c0.8-0.1,1.7-0.3,2.5-0.5c1.3-0.3,2.6-0.6,3.9-1c0.2,0.2,0.5,0.3,0.7,0.5&#10;&#9;&#9;&#9;c1.2,0.7,2.6,1.1,3.9,1.3c1.3,0.2,2.7,0.2,4,0.2c1.3,0,2.6-0.1,3.9-0.1c1.3,0,2.6-0.1,3.9-0.2c2.6-0.2,5.1-0.4,7.7-0.8&#10;&#9;&#9;&#9;c2.6-0.3,5.1-0.7,7.6-1.1c2.5-0.4,5.1-0.9,7.6-1.3l15.2-2.7c4.7-0.8,9.4-1.7,14.1-2.5c0,0.1,0,0.1,0,0.2l-8.7,1.5l-9.8,1.7&#10;&#9;&#9;&#9;l-19.6,3.5c-1.6,0.3-3.3,0.6-4.9,0.8c-1.6,0.2-3.3,0.5-4.9,0.7l-2.5,0.3l-2.5,0.2c-0.8,0.1-1.6,0.2-2.5,0.2l-2.5,0.2&#10;&#9;&#9;&#9;c-1.6,0.1-3.3,0.1-4.9,0.1c-0.8,0-1.6,0-2.5,0c-0.8,0-1.6-0.1-2.5-0.1c-1.6-0.1-3.3-0.3-4.9-0.5c-1.2-0.2-2.4-0.4-3.5-0.6&#10;&#9;&#9;&#9;C553.4,158.2,553.8,158.2,554.1,158.1z M751.4,53.3l-0.2,0c-1,0-2,0.1-3,0.1c0.4-0.4,0.7-0.8,1.1-1.3c0.5-0.6,0.9-1.2,1.4-1.8&#10;&#9;&#9;&#9;c0.2-0.3,0.4-0.6,0.6-1c0.1-0.1,0.1-0.2,0.2-0.3l5.8,0.4l3.1,0.2c1,0.1,2.1,0.1,3.1,0.2l6.1,0.3c4.1,0.2,8.1,0.5,12,1.3&#10;&#9;&#9;&#9;c2,0.4,3.9,0.9,5.8,1.5c0.9,0.3,1.7,0.7,2.6,1.1l-4.1,0.2l-7.4,0.5l-7.4,0.5c-2.1,0.1-4.2,0.3-6.3,0.5c0-0.3,0-0.6-0.2-0.9&#10;&#9;&#9;&#9;c-0.1-0.3-0.4-0.5-0.7-0.7c-0.2-0.1-0.5-0.1-0.4-0.1c0,0-0.3,0-0.2,0c-1.3-0.1-2.6-0.2-3.9-0.2c-1.3-0.1-2.6-0.2-3.9-0.2l-2-0.1&#10;&#9;&#9;&#9;l-1-0.1l-0.5,0C751.7,53.3,751.4,53.3,751.4,53.3z M598.5,44l24.2,0.5l24.5,0.5l24.5,0.6c0.1,0,0.2,0,0.3,0l-0.4,1.1c0,0,0,0,0,0&#10;&#9;&#9;&#9;c0,0,0,0,0,0c0,0,0,0,0,0c0,0-0.1,0-0.1-0.1c0.2,0.2,0.5,0.4,0.8,0.8c0.7,0.7,1.5,1.7,2.3,2.8c0.4,0.5,0.8,1.1,1.1,1.6&#10;&#9;&#9;&#9;c0.3,0.5,0.6,1,0.9,1.5c0.1,0.3,0.3,0.5,0.4,0.7c-1.6,0-3.2-0.1-4.8-0.1l0,0l-24-0.6c-10.9-0.4-20.1-0.7-20.1-0.7l-25.9-3.9l0,0&#10;&#9;&#9;&#9;l-1.5-3.9l0-0.1l-0.1,0C599.8,44.6,599.1,44.4,598.5,44z M744.9,53.7c-0.6,0-1.1,0.1-1.7,0.1c-2.6,0.1-5.3,0.3-7.9,0.3&#10;&#9;&#9;&#9;c-1.4,0-2.7,0.1-4.1,0.1l-3.6-6.4c2.6,0.2,20.3,1.2,22.3,1.3l0,0l0,0c-0.1,0.2-0.3,0.3-0.4,0.5c-0.5,0.5-1,1-1.6,1.5&#10;&#9;&#9;&#9;C747,51.9,746,52.8,744.9,53.7z M724.9,47.5l6.2,6.6c-1.2,0-2.4,0-3.7,0c-10.6,0-21.2,0-31.7,0c-0.2,0-0.3,0-0.5,0&#10;&#9;&#9;&#9;c-0.1,0-0.2,0-0.4,0c-4.3,0-8.6-0.1-13-0.2c0,0,0,0,0,0c-0.1,0-0.1,0-0.2,0.1c-0.5,0-1,0-1.5,0c-1,0-2,0-3-0.1&#10;&#9;&#9;&#9;c-0.1-0.2-0.1-0.5-0.2-0.9c-0.1-0.5-0.3-1.1-0.6-1.7c-0.2-0.6-0.5-1.2-0.8-1.9c-0.6-1.2-1.2-2.5-1.7-3.4c-0.1-0.2-0.3-0.4-0.4-0.6&#10;&#9;&#9;&#9;c7.6,0.2,15.1,0.4,22.6,0.7c4.1,0.1,8.2,0.3,12.2,0.5l12.2,0.5C722,47.4,723.4,47.5,724.9,47.5z M622.3,52.2&#10;&#9;&#9;&#9;c-3.9-0.5-7.7-1.1-11.4-1.7c-1.5-0.2-2.9-0.5-4.3-0.7L622.3,52.2z M762.9,56.3C762.9,56.3,762.9,56.3,762.9,56.3L762.9,56.3z&#10;&#9;&#9;&#9; M605.8,40.7l2.3,0.1c0.8,0,1.6,0,2.3,0l18.5-0.4c6.2-0.1,12.4-0.2,18.5-0.2c6.2,0,12.4,0.1,18.5,0.2c12.4,0.2,24.7,0.5,37.1,0.8&#10;&#9;&#9;&#9;l18.5,0.5l9.3,0.2l9.3,0.2l1.2,0l0-0.1c3.4,0,6.8,0.1,10.2,0.2c0,0,0,0,0,0c0,0.2,0,0.3,0,0.5c0,0.6-0.1,1.2-0.2,1.8&#10;&#9;&#9;&#9;c-0.1,0.9-0.3,1.7-0.4,2.6c-1.9-0.1-3.9-0.2-5.8-0.3c-4.1-0.2-8.2-0.4-12.2-0.6c-4.1-0.2-8.2-0.4-12.2-0.5l-12.2-0.4&#10;&#9;&#9;&#9;c-4.1-0.1-8.2-0.2-12.2-0.3c-8.2-0.2-16.3-0.3-24.5-0.5c-8.2-0.1-16.3-0.2-24.5-0.2L598.5,44c0,0-0.1,0-0.1,0&#10;&#9;&#9;&#9;c-0.3-0.2-0.4-0.5-0.5-0.9c-0.1-0.3-0.1-0.7-0.1-1.1c0-0.3,0.1-0.6,0.2-0.9l0,0c0.6-0.2,1.2-0.3,1.8-0.4c0.5,0,0.9,0,1.4,0&#10;&#9;&#9;&#9;C602.7,40.6,604.2,40.7,605.8,40.7z M602.1,39.2C602.1,39.2,602.1,39.2,602.1,39.2C602.2,39.1,602.1,39.2,602.1,39.2L602.1,39.2z&#10;&#9;&#9;&#9; M594.5,35.4c0.3-0.9,0.5-1.8,0.8-2.6c0.3-0.9,0.6-1.7,1-2.5c0.4-0.8,0.8-1.6,1.3-2.3c0.5-0.7,1.1-1.3,1.7-1.9&#10;&#9;&#9;&#9;c0.6-0.5,1.4-1,2.2-1.3c0.4-0.2,0.8-0.3,1.2-0.4c0.4-0.1,0.9-0.2,1.2-0.3c0,0,0,0,0,0c0,0.1,0,0.1,0,0.2l0,0.2c0,0,0,0.1,0,0&#10;&#9;&#9;&#9;c0,0,0,0.1,0,0.1l0,0.2l0,0.3c-0.1,0.9-0.2,1.8-0.3,2.7l-0.8,5.5l-0.4,2.7c-0.1,0.9-0.3,1.8-0.5,2.7c0,0.2-0.1,0.4-0.1,0.6&#10;&#9;&#9;&#9;c-0.5,0.1-0.9,0.2-1.3,0.3c-0.9,0.2-1.8,0.5-2.7,0.9c-1.5,0.2-2.9,0.3-4.4,0.3c0,0,0,0,0,0l0-0.4l-0.3,0&#10;&#9;&#9;&#9;C593.6,38.7,594,37,594.5,35.4z M593,42.2c0.1-0.2,0.1-0.3,0.2-0.5c0-0.2,0.1-0.3,0.1-0.5c0-0.1,0-0.2,0-0.2c0-0.1,0-0.1,0-0.2&#10;&#9;&#9;&#9;c1.4,0.2,2.8,0.3,4.2,0.3c-0.1,0.3-0.1,0.6-0.1,0.9c0,0.4,0,0.8,0.1,1.2c0.1,0.4,0.4,0.8,0.7,1.1c0.6,0.5,1.4,0.7,2.2,0.7l1.6,4.2&#10;&#9;&#9;&#9;c-4.5-0.8-8.7-1.5-12.6-2.2c-1.1-0.2-2.2-0.4-3.3-0.6c0-0.1-0.1-0.3-0.2-0.5c-0.1-0.3-0.2-0.7-0.3-1.1c-0.1-0.2-0.1-0.5-0.2-0.7&#10;&#9;&#9;&#9;c0-0.1,0-0.3,0-0.4c0,0,0,0,0-0.1c1.8,0,3.7,0.1,5.5,0.1l0,0l0,0c0.2,0,0.3,0,0.5-0.1c0.2,0,0.3-0.1,0.5-0.2&#10;&#9;&#9;&#9;c0.2-0.1,0.3-0.2,0.4-0.3c0.1-0.1,0.3-0.2,0.4-0.4C592.9,42.5,593,42.3,593,42.2z M586.1,46.3c-1.9-0.4-3.8-0.7-5.6-1&#10;&#9;&#9;&#9;c-1.4-0.3-2.7-0.5-4-0.7c-0.5-0.1-1-0.2-1.5-0.3c4.2-0.3,7.6-0.5,9.9-0.7c0.1,0,0.2,0,0.4,0c0,0.1,0,0.3,0.1,0.4&#10;&#9;&#9;&#9;c0.1,0.3,0.1,0.5,0.2,0.8c0.1,0.5,0.3,0.8,0.4,1.1C586,46,586.1,46.2,586.1,46.3z M508.1,49.2c0.8-0.5,1.6-0.8,2.5-1.1&#10;&#9;&#9;&#9;c1.7-0.6,3.5-1,5.3-1.3c0.9-0.2,1.8-0.3,2.7-0.5l2.7-0.6c1.8-0.4,3.6-0.8,5.4-1.2c1.8-0.4,3.6-0.7,5.4-1c1.8-0.3,3.6-0.6,5.4-0.8&#10;&#9;&#9;&#9;c1.8-0.2,3.6-0.4,5.5-0.6c1.8-0.2,3.6-0.3,5.5-0.4c1.8-0.1,3.7-0.1,5.5-0.2c1.8,0,3.7,0,5.5,0l5.5,0.1l5.5,0.1&#10;&#9;&#9;&#9;c1.9,0,3.7,0.1,5.6,0.1l5.6-0.1l5.6-0.2c1.7,0,3.4-0.1,5.1-0.2c0,0.1,0,0.2,0,0.3c0,0.1-0.1,0.2-0.1,0.4c0,0.1-0.1,0.2-0.2,0.3&#10;&#9;&#9;&#9;c-0.1,0.1-0.1,0.2-0.2,0.3c-0.1,0.1-0.2,0.2-0.3,0.2c-0.1,0.1-0.2,0.1-0.3,0.2c-0.1,0-0.3,0.1-0.4,0.1l0,0&#10;&#9;&#9;&#9;c-1.8,0.2-3.6,0.3-5.5,0.5c0,0-0.1-0.1-0.1-0.1l-0.1,0c-0.1,0-0.2,0-0.2,0c-2.5,0.1-6.1,0.2-10.8,0.4l-0.4,0l-0.1,0&#10;&#9;&#9;&#9;c0,0-0.1,0-0.2,0.1c-0.1,0.1-0.1,0.2-0.1,0.3c0,0.1,0.1,0.2,0.2,0.2c0.1,0,0.1,0,0.1,0l0.1,0c0.3,0.1,0.6,0.1,0.9,0.2&#10;&#9;&#9;&#9;c0.6,0.1,1.2,0.3,1.8,0.4c1.3,0.3,2.6,0.6,3.9,0.8c2.7,0.6,5.7,1.2,8.9,1.9c6.3,1.3,13.5,2.8,21.4,4.1c3.9,0.7,8,1.4,12.3,2&#10;&#9;&#9;&#9;c2.1,0.3,4.3,0.6,6.5,0.8c0.6,0,1.1,0.1,1.7,0.1l0.4,0c0.2,0,0.3,0,0.4,0l0.8,0c1.1,0,2.3,0.1,3.4,0.1c9.1,0.3,18.7,0.6,28.7,0.9&#10;&#9;&#9;&#9;c5,0.1,10,0.3,15.2,0.4c2.6,0.1,5.1,0.2,7.8,0.2c2.6,0,5.2,0,7.8,0c10.5,0,21.1,0,31.7,0c2.6,0,5.3,0,8-0.1c2.7-0.1,5.3-0.2,8-0.3&#10;&#9;&#9;&#9;c2.6-0.1,5.3-0.3,7.9-0.4l0.2,0c0,0,0,0,0.1,0c0,0,0,0,0.1,0l0.5,0l1,0.1l2,0.1c0.9,0.1,1.8,0.1,2.7,0.2c-0.4,0.1-0.9,0.2-1.3,0.3&#10;&#9;&#9;&#9;l-0.9,0.2l-0.5,0.1c0,0,0,0,0,0c0,0,0,0,0,0l-0.2,0l-1.9,0.1c-2.6,0.2-5.1,0.4-7.6,0.5c-2.5,0.1-5,0.3-7.5,0.3&#10;&#9;&#9;&#9;c-9.9,0.3-19.6,0.5-28.7,0.6c-9.1,0.1-17.7,0.1-25.7,0c-8,0-15.3-0.1-21.7-0.1c-6.5-0.1-12.1-0.1-16.8-0.1&#10;&#9;&#9;&#9;c-6.9-0.1-11.5-0.1-13.5-0.1l0.1-0.9l-1-0.2l-9.8-1.6l-9.8-1.6l-19.6-3.1c-1.6-0.2-3.2-0.5-4.9-0.8c-1.6-0.2-3.3-0.5-4.9-0.6&#10;&#9;&#9;&#9;l-2.5-0.3l-2.5-0.2c-0.8-0.1-1.7-0.1-2.5-0.1l-2.5-0.1c-1.7,0-3.3,0-5,0c-0.8,0-1.7,0.1-2.5,0.1c-0.8,0-1.7,0.1-2.5,0.2&#10;&#9;&#9;&#9;c-1.7,0.1-3.3,0.4-5,0.6c-1.2,0.2-2.4,0.4-3.5,0.7l0.1-0.3l-1.3,0.1l-12,0.6c-2.2,0.1-4.5,0.3-6.7,0.5c-0.1-0.2-0.3-0.3-0.4-0.5&#10;&#9;&#9;&#9;c-0.4-0.3-0.9-0.6-1.4-0.8c-1-0.4-2-0.6-3-0.9c-1-0.2-2-0.4-3-0.6c-1-0.1-2.1-0.2-3.1-0.2c-0.5,0-1,0-1.6,0c-0.5,0-1,0.1-1.6,0.1&#10;&#9;&#9;&#9;c-0.5,0.1-1.1,0.1-1.6,0.2c-0.5,0.1-1,0.2-1.5,0.4c-1.9,0.5-3.8,1.2-5.6,1.8l-2.4-0.3l-0.7-0.1l-0.1,0&#10;&#9;&#9;&#9;C507.3,49.8,507.7,49.5,508.1,49.2z M503.7,56c0.3-0.3,0.5-0.7,0.8-1c0.2-0.3,0.6-0.6,0.9-0.9c0.3-0.3,0.6-0.7,0.9-0.9&#10;&#9;&#9;&#9;c0.1-0.1,0.3-0.3,0.4-0.4c0,0,0.1-0.1,0.1-0.1l0.1,0l0.7,0.1l2.6,0.3l0.3,0l0.2-0.1c2-0.7,3.8-1.4,5.7-2c0.5-0.1,0.9-0.3,1.4-0.4&#10;&#9;&#9;&#9;c0.5-0.1,0.9-0.2,1.4-0.3c0.5-0.1,1-0.2,1.4-0.2c0.5-0.1,1-0.1,1.5-0.2c1-0.1,2-0.1,3-0.1c0.5,0,1,0,1.5,0.1c0.5,0,1,0.1,1.5,0.1&#10;&#9;&#9;&#9;c1,0.1,2,0.2,3,0.4c0.5,0.1,1,0.2,1.4,0.5c0.1,0.1,0.2,0.1,0.3,0.2c-1.7,0.2-3.4,0.3-5,0.6c-2,0.3-4,0.6-6,1.1&#10;&#9;&#9;&#9;c-1,0.2-2,0.4-2.9,0.7c-1,0.3-2,0.5-2.9,0.9l-1.4,0.5c-0.5,0.2-0.9,0.4-1.4,0.6l-1.4,0.6c-0.5,0.2-0.9,0.5-1.4,0.7l-1.3,0.7&#10;&#9;&#9;&#9;l-1.3,0.8c-0.4,0.3-0.9,0.5-1.3,0.8l-1.2,0.9c-1.6,1.3-3.1,2.7-4.3,4.3c-1.3,1.6-2.4,3.2-3.4,5c-0.1,0.2-0.2,0.4-0.3,0.6&#10;&#9;&#9;&#9;c0.2-0.4,0.3-0.8,0.5-1.3c0.3-0.8,0.5-1.5,0.8-2.3l0,0c0.7-1.6,1.4-3.2,2.2-4.8c0.4-0.8,0.8-1.6,1.2-2.3c0.2-0.4,0.4-0.7,0.6-1.1&#10;&#9;&#9;&#9;c0.2-0.4,0.4-0.7,0.7-1.1C503.2,56.6,503.4,56.3,503.7,56z M500.6,151.3c-0.7-0.9-1.4-1.7-2.1-2.6l-1-1.4l-0.5-0.7l-0.4-0.7&#10;&#9;&#9;&#9;c-0.6-1-1-1.9-1.5-2.9c-0.9-2-1.8-4.1-2.6-6.1c-0.8-2.1-1.6-4.2-2.2-6.3c-0.2-0.5-0.3-1.1-0.5-1.6c-0.1-0.5-0.3-1-0.4-1.6&#10;&#9;&#9;&#9;c-0.3-1.1-0.5-2.1-0.7-3.2c-0.2-1.1-0.4-2.2-0.5-3.3l-0.4-3.3c-0.3-2.2-0.6-4.4-0.8-6.6c-0.2-2.2-0.3-4.4-0.2-6.5l0-0.1l0-0.1&#10;&#9;&#9;&#9;c-0.1-2.2,0-4.4,0.2-6.5c0.2-2.2,0.5-4.4,0.8-6.6l0.4-3.3c0.1-1.1,0.3-2.2,0.5-3.3c0.2-1.1,0.4-2.2,0.7-3.2&#10;&#9;&#9;&#9;c0.3-1.1,0.6-2.1,0.9-3.2c0.7-2.1,1.5-4.2,2.2-6.3c0.8-2.1,1.6-4.1,2.6-6.1c0.5-1,1-2,1.5-2.9l0.4-0.7l0.5-0.7l1-1.4&#10;&#9;&#9;&#9;c0.5-0.6,0.9-1.2,1.4-1.8c-0.4,0.8-0.7,1.7-1,2.6c-0.6,1.7-1.1,3.4-1.5,5.1l0,0c-0.1,0.8-0.3,1.6-0.4,2.4c-0.1,0.7-0.2,1.3-0.3,2&#10;&#9;&#9;&#9;c-0.2,0.5-0.5,1-0.7,1.5c-0.4,0.9-0.8,1.8-1.1,2.8c-0.7,1.9-1.3,3.8-1.7,5.8c-1.9,7.8-2.3,15.9-2.3,23.9c0-4,0.1-8,0.5-12&#10;&#9;&#9;&#9;c0.1-1.2,0.2-2.3,0.4-3.5c0.1-0.1,0.2-0.2,0.3-0.3c0.3-0.2,0.6-0.6,1.1-1c0.5-0.4,1.1-0.9,1.8-1.5c0.7-0.6,1.5-1.2,2.3-1.9&#10;&#9;&#9;&#9;c0.9-0.7,1.8-1.4,2.8-2.2c1-0.7,2.1-1.5,3.2-2.3c0.6-0.4,1.1-0.8,1.7-1.2c0.6-0.4,1.2-0.8,1.8-1.2c0.6-0.4,1.2-0.8,1.8-1.2&#10;&#9;&#9;&#9;c0.6-0.4,1.2-0.8,1.9-1.1c1.2-0.8,2.5-1.5,3.8-2.2c1.2-0.7,2.5-1.3,3.7-2c0.3-0.2,0.6-0.3,0.9-0.5c0.3-0.1,0.6-0.3,0.9-0.4&#10;&#9;&#9;&#9;c0.6-0.3,1.2-0.6,1.7-0.8c1.1-0.6,2.2-1,3.2-1.5c1-0.4,1.9-0.9,2.7-1.2c0.8-0.3,1.6-0.6,2.2-0.9c1.2-0.5,1.9-0.8,1.9-0.8&#10;&#9;&#9;&#9;s-0.7,0.2-2,0.4c-0.6,0.2-1.4,0.3-2.3,0.6c-0.9,0.2-1.8,0.6-2.9,0.9c-0.5,0.2-1.1,0.4-1.7,0.5c-0.6,0.2-1.1,0.4-1.7,0.7&#10;&#9;&#9;&#9;c-0.6,0.2-1.2,0.5-1.8,0.7c-0.3,0.1-0.6,0.3-0.9,0.4c-0.3,0.1-0.6,0.3-0.9,0.4c-0.6,0.3-1.3,0.6-1.9,0.9c-0.3,0.2-0.6,0.3-1,0.5&#10;&#9;&#9;&#9;c-0.3,0.2-0.6,0.3-1,0.5c-1.3,0.7-2.6,1.4-3.9,2.2c-0.6,0.4-1.3,0.8-1.9,1.2c-0.6,0.4-1.2,0.8-1.8,1.2c-1.2,0.8-2.4,1.7-3.5,2.5&#10;&#9;&#9;&#9;c-1.1,0.8-2.1,1.7-3.1,2.5c-1,0.8-1.9,1.6-2.7,2.4c-0.4,0.4-0.8,0.7-1.1,1.1c-0.4,0.4-0.7,0.7-1,1c-0.6,0.6-1.1,1.2-1.6,1.7&#10;&#9;&#9;&#9;c-0.7,0.8-1.1,1.3-1.2,1.5c0.1-0.8,0.2-1.7,0.3-2.5c0.3-2,0.7-4,1.2-5.9c0.5-1.9,1.1-3.9,1.8-5.7c0.3-0.9,0.8-1.8,1.2-2.8&#10;&#9;&#9;&#9;c0.5-0.9,0.9-1.8,1.4-2.7c1-1.7,2.1-3.4,3.4-4.9c1.3-1.5,2.8-2.9,4.3-4.1l1.2-0.9c0.4-0.3,0.8-0.5,1.3-0.8l1.3-0.8l1.3-0.7&#10;&#9;&#9;&#9;c0.4-0.2,0.9-0.4,1.3-0.7l1.4-0.6c0.5-0.2,0.9-0.4,1.4-0.5l1.4-0.5c0.9-0.3,1.9-0.6,2.9-0.8c1-0.3,1.9-0.5,2.9-0.7&#10;&#9;&#9;&#9;c2-0.4,3.9-0.7,5.9-0.9c4-0.5,8-0.7,12-0.8c3.6-0.1,7.1-0.2,10.7-0.3c-1.6,3.9-2.7,7.9-3.6,12c-0.5,2.2-0.9,4.5-1.3,6.7l-1.1,6.7&#10;&#9;&#9;&#9;c-0.8,4.5-1.3,9.1-1.7,13.6c-0.2,2.3-0.4,4.6-0.5,6.9c-0.1,2.3-0.2,4.6-0.2,6.9c0.1,9.2,0.9,18.3,2.4,27.4l1.1,6.7&#10;&#9;&#9;&#9;c0.4,2.3,0.8,4.5,1.3,6.7c0.9,4.1,2,8.1,3.6,12c-3.6-0.1-7.2-0.1-10.7-0.3c-4-0.1-8-0.3-12-0.8c-2-0.2-4-0.5-5.9-0.9&#10;&#9;&#9;&#9;c-1-0.2-2-0.4-2.9-0.7c-1-0.3-1.9-0.5-2.9-0.8l-1.4-0.5c-0.5-0.2-0.9-0.4-1.4-0.5l-1.4-0.6c-0.5-0.2-0.9-0.4-1.3-0.6l-1.3-0.7&#10;&#9;&#9;&#9;l-1.3-0.8c-0.4-0.3-0.9-0.5-1.3-0.8l-1.2-0.9c-1.6-1.2-3.1-2.5-4.3-4.1c-1.3-1.5-2.5-3.2-3.4-4.9c-0.5-0.9-0.9-1.8-1.4-2.7&#10;&#9;&#9;&#9;c-0.4-0.9-0.8-1.8-1.2-2.8c-0.7-1.9-1.3-3.8-1.8-5.7c-0.5-1.9-0.9-3.9-1.2-5.9c-0.1-0.8-0.2-1.7-0.3-2.5c0.1,0.2,0.5,0.7,1.2,1.5&#10;&#9;&#9;&#9;c0.4,0.5,0.9,1.1,1.6,1.7c0.3,0.3,0.6,0.7,1,1c0.4,0.4,0.7,0.7,1.1,1.1c0.8,0.8,1.7,1.6,2.7,2.4c1,0.8,2,1.7,3.1,2.5&#10;&#9;&#9;&#9;c1.1,0.8,2.2,1.7,3.5,2.5c0.6,0.4,1.2,0.8,1.8,1.2c0.6,0.4,1.3,0.8,1.9,1.2c1.3,0.8,2.6,1.5,3.9,2.2c0.3,0.2,0.6,0.3,1,0.5&#10;&#9;&#9;&#9;c0.3,0.2,0.7,0.3,1,0.5c0.6,0.3,1.3,0.6,1.9,0.9c0.3,0.1,0.6,0.3,0.9,0.4c0.3,0.1,0.6,0.3,0.9,0.4c0.6,0.2,1.2,0.5,1.8,0.7&#10;&#9;&#9;&#9;c0.6,0.2,1.2,0.5,1.7,0.7c0.6,0.2,1.1,0.4,1.7,0.5c1.1,0.3,2,0.7,2.9,0.9c0.9,0.2,1.6,0.4,2.3,0.6c1.3,0.3,2,0.4,2,0.4&#10;&#9;&#9;&#9;s-0.7-0.3-1.9-0.8c-0.6-0.2-1.3-0.5-2.2-0.9c-0.8-0.3-1.7-0.8-2.7-1.2c-1-0.4-2.1-0.9-3.2-1.5c-0.6-0.3-1.1-0.6-1.7-0.8&#10;&#9;&#9;&#9;c-0.3-0.1-0.6-0.3-0.9-0.4c-0.3-0.2-0.6-0.3-0.9-0.5c-1.2-0.7-2.5-1.3-3.7-2c-1.2-0.7-2.5-1.4-3.8-2.2c-0.6-0.4-1.2-0.8-1.9-1.1&#10;&#9;&#9;&#9;c-0.6-0.4-1.2-0.8-1.8-1.2c-0.6-0.4-1.2-0.8-1.8-1.2c-0.6-0.4-1.2-0.8-1.7-1.2c-1.1-0.8-2.2-1.6-3.2-2.3c-1-0.8-2-1.5-2.8-2.2&#10;&#9;&#9;&#9;c-0.9-0.7-1.7-1.3-2.3-1.9c-0.7-0.6-1.3-1.1-1.8-1.5c-0.5-0.4-0.9-0.8-1.1-1c-0.2-0.2-0.3-0.3-0.3-0.3c-0.2-1.2-0.3-2.3-0.4-3.5&#10;&#9;&#9;&#9;c-0.4-4-0.5-8-0.5-12c0,4,0.1,8,0.4,12c0.2,2,0.4,4,0.7,6c0.3,2,0.7,4,1.2,5.9c0.5,2,1,3.9,1.7,5.8c0.3,1,0.7,1.9,1.1,2.8&#10;&#9;&#9;&#9;c0.2,0.5,0.5,1,0.7,1.5c0.1,0.7,0.2,1.3,0.3,2c0.1,0.8,0.3,1.6,0.4,2.4l0,0c0.5,1.7,1,3.4,1.6,5.1&#10;&#9;&#9;&#9;C499.6,149.1,500,150.2,500.6,151.3C500.6,151.4,500.6,151.4,500.6,151.3z M506.4,156.4c-0.1-0.1-0.3-0.3-0.4-0.4&#10;&#9;&#9;&#9;c-0.3-0.3-0.6-0.6-0.9-1c-0.3-0.3-0.6-0.7-0.9-1c-0.3-0.3-0.5-0.7-0.8-1c-0.2-0.3-0.5-0.7-0.7-1.1c-0.2-0.4-0.5-0.7-0.7-1.1&#10;&#9;&#9;&#9;c-0.2-0.4-0.4-0.7-0.6-1.1c-0.4-0.8-0.8-1.5-1.2-2.3c-0.7-1.6-1.4-3.2-2.1-4.8l0,0c-0.2-0.8-0.5-1.5-0.7-2.3&#10;&#9;&#9;&#9;c-0.1-0.5-0.3-0.9-0.5-1.4c0.1,0.2,0.3,0.5,0.4,0.7c1,1.8,2.1,3.4,3.4,5c1.3,1.6,2.8,3,4.3,4.3l1.2,0.9c0.4,0.3,0.9,0.5,1.3,0.8&#10;&#9;&#9;&#9;l1.3,0.8l1.4,0.7c0.5,0.2,0.9,0.5,1.4,0.7l1.4,0.6c0.5,0.2,0.9,0.4,1.4,0.6l1.4,0.5c0.9,0.4,1.9,0.6,2.9,0.9c1,0.3,2,0.5,2.9,0.7&#10;&#9;&#9;&#9;c2,0.5,4,0.8,6,1.1c1.7,0.2,3.4,0.4,5.1,0.6c-0.1,0.1-0.2,0.2-0.4,0.2c-0.4,0.2-0.9,0.4-1.4,0.5c-1,0.2-2,0.3-3,0.4&#10;&#9;&#9;&#9;c-0.5,0.1-1,0.1-1.5,0.1c-0.5,0-1,0.1-1.5,0.1c-1,0-2,0-3-0.1c-0.5,0-1-0.1-1.5-0.1c-0.5-0.1-1-0.1-1.5-0.2&#10;&#9;&#9;&#9;c-0.5-0.1-1-0.2-1.4-0.3c-0.5-0.1-0.9-0.2-1.4-0.4c-1.9-0.6-3.8-1.3-5.7-2l-0.2-0.1l-0.2,0c-0.9,0.1-1.8,0.2-2.6,0.3l-0.7,0.1&#10;&#9;&#9;&#9;l-0.2,0C506.6,156.5,506.5,156.4,506.4,156.4z M506.5,156.6L506.5,156.6L506.5,156.6L506.5,156.6L506.5,156.6L506.5,156.6z&#10;&#9;&#9;&#9; M581.8,167.3l-5.6-0.1c-1.9,0-3.7,0-5.6,0.1l-5.5,0.1l-5.5,0.1c-1.8,0-3.7,0-5.5,0c-1.8,0-3.7-0.1-5.5-0.2&#10;&#9;&#9;&#9;c-1.8-0.1-3.7-0.2-5.5-0.4c-1.8-0.2-3.6-0.4-5.5-0.6c-1.8-0.2-3.6-0.5-5.4-0.8c-1.8-0.3-3.6-0.6-5.4-1c-1.8-0.4-3.6-0.8-5.4-1.2&#10;&#9;&#9;&#9;l-2.7-0.6c-0.9-0.2-1.8-0.3-2.7-0.5c-1.8-0.3-3.6-0.7-5.3-1.3c-0.9-0.3-1.7-0.6-2.5-1.1c-0.5-0.3-1-0.7-1.3-1.3l0.3,0l0.7-0.1&#10;&#9;&#9;&#9;c0.8-0.1,1.6-0.2,2.4-0.3c1.8,0.6,3.7,1.3,5.6,1.8c0.5,0.1,1,0.3,1.5,0.4c0.5,0.1,1.1,0.2,1.5,0.3c0.5,0.1,1,0.1,1.6,0.1&#10;&#9;&#9;&#9;c0.5,0,1,0,1.6,0c1,0,2.1-0.1,3.1-0.2c1-0.1,2.1-0.3,3-0.5c1-0.2,2-0.4,3-0.8c0.5-0.2,1-0.4,1.4-0.7c0.2-0.1,0.3-0.3,0.5-0.4&#10;&#9;&#9;&#9;c2.2,0.2,4.5,0.4,6.7,0.5l12,0.6l1.3,0.1l-0.1-0.3c1.2,0.3,2.4,0.5,3.5,0.7c1.6,0.3,3.3,0.5,5,0.6c0.8,0.1,1.7,0.1,2.5,0.2&#10;&#9;&#9;&#9;c0.8,0,1.7,0.1,2.5,0.1c1.7,0.1,3.3,0,5,0l2.5-0.1c0.8,0,1.7-0.1,2.5-0.1l2.5-0.2l2.5-0.3c1.7-0.1,3.3-0.4,5-0.6&#10;&#9;&#9;&#9;c1.7-0.2,3.3-0.5,4.9-0.8l19.6-3.1l9.8-1.6l9.8-1.6l1-0.2l-0.1-0.9c2,0,6.7-0.1,13.5-0.1c4.6,0,10.3-0.1,16.8-0.1&#10;&#9;&#9;&#9;c6.5,0,13.8-0.1,21.7-0.1c8,0,16.6,0,25.7,0c9.1,0.1,18.7,0.2,28.7,0.6c2.5,0.1,5,0.2,7.5,0.3c2.5,0.1,5.1,0.3,7.6,0.5l1.9,0.1&#10;&#9;&#9;&#9;l0.2,0c0,0,0,0,0,0c0,0,0,0,0,0l0.5,0.1l0.9,0.2c0.4,0.1,0.9,0.2,1.3,0.3c-0.9,0.1-1.8,0.1-2.7,0.2l-2,0.1l-1,0.1l-0.5,0&#10;&#9;&#9;&#9;c0,0-0.1,0-0.1,0c0,0,0,0-0.1,0l-0.2,0c-2.6-0.1-5.3-0.3-7.9-0.4c-2.6-0.1-5.3-0.3-8-0.3c-2.7-0.1-5.4-0.1-8-0.1&#10;&#9;&#9;&#9;c-10.6,0-21.2,0-31.7,0c-2.6,0-5.2,0-7.8,0c-2.6,0-5.2,0.1-7.8,0.2c-5.1,0.1-10.2,0.3-15.2,0.4c-10,0.3-19.6,0.6-28.7,0.9&#10;&#9;&#9;&#9;c-1.1,0-2.3,0.1-3.4,0.1l-0.8,0c-0.1,0-0.3,0-0.4,0l-0.4,0c-0.6,0-1.1,0.1-1.7,0.1c-2.2,0.2-4.4,0.5-6.5,0.8&#10;&#9;&#9;&#9;c-4.3,0.6-8.4,1.3-12.3,2c-7.9,1.4-15,2.8-21.4,4.1c-3.2,0.7-6.1,1.3-8.9,1.9c-1.4,0.3-2.7,0.6-3.9,0.8c-0.6,0.1-1.2,0.3-1.8,0.4&#10;&#9;&#9;&#9;c-0.3,0.1-0.6,0.1-0.9,0.2l-0.1,0c0,0,0,0-0.1,0c-0.1,0-0.2,0.1-0.2,0.2c0,0.1,0,0.2,0.1,0.3c0.1,0.1,0.2,0.1,0.2,0.1l0.1,0l0.4,0&#10;&#9;&#9;&#9;c4.6,0.2,8.3,0.3,10.8,0.4c0.1,0,0.2,0,0.2,0l0.1,0c0,0,0.1,0,0.1-0.1c1.8,0.2,3.6,0.4,5.5,0.5l0,0c0.1,0,0.3,0.1,0.4,0.1&#10;&#9;&#9;&#9;c0.1,0,0.2,0.1,0.3,0.2c0.1,0.1,0.2,0.1,0.3,0.2c0.1,0.1,0.2,0.2,0.2,0.3c0.1,0.1,0.1,0.2,0.2,0.3c0,0.1,0.1,0.2,0.1,0.4&#10;&#9;&#9;&#9;c0,0.1,0,0.2,0,0.3c-1.7-0.1-3.4-0.1-5.1-0.2L581.8,167.3z M602.8,175.7l0.8,5.5c0.1,0.9,0.2,1.8,0.3,2.7l0,0.3l0,0.2&#10;&#9;&#9;&#9;c0,0,0,0,0,0.1c0,0,0,0,0,0l0,0.2c0,0.1,0,0.1,0,0.2c0,0,0,0,0,0c-0.4-0.1-0.9-0.2-1.2-0.3c-0.4-0.1-0.8-0.3-1.2-0.4&#10;&#9;&#9;&#9;c-0.8-0.3-1.5-0.8-2.2-1.3c-0.6-0.6-1.2-1.2-1.7-1.9c-0.5-0.7-0.9-1.5-1.3-2.3c-0.4-0.8-0.7-1.7-1-2.5c-0.3-0.9-0.6-1.7-0.8-2.6&#10;&#9;&#9;&#9;c-0.5-1.6-0.9-3.3-1.4-4.9l0.3,0l0-0.4c0,0,0,0,0,0c1.5,0.1,2.9,0.2,4.4,0.3c0.9,0.4,1.8,0.7,2.7,0.9c0.4,0.1,0.9,0.2,1.3,0.3&#10;&#9;&#9;&#9;c0,0.2,0.1,0.4,0.1,0.6c0.2,0.9,0.3,1.8,0.5,2.7L602.8,175.7z M602.1,169.7L602.1,169.7C602.1,169.7,602.2,169.7,602.1,169.7&#10;&#9;&#9;&#9;C602.1,169.7,602.1,169.7,602.1,169.7z M730.9,166.9l-9.3,0.2l-18.5,0.5c-12.4,0.3-24.7,0.6-37.1,0.8c-6.2,0.1-12.3,0.2-18.5,0.2&#10;&#9;&#9;&#9;c-6.2,0-12.3-0.1-18.5-0.2l-18.5-0.4c-0.8,0-1.5,0-2.3,0l-2.3,0.1c-1.5,0-3.1,0.1-4.6,0.1c-0.5,0-0.9,0-1.4,0&#10;&#9;&#9;&#9;c-0.6-0.1-1.2-0.2-1.7-0.4l0,0c-0.1-0.3-0.1-0.6-0.2-0.9c0-0.4,0-0.7,0.1-1.1c0.1-0.3,0.3-0.6,0.5-0.9c0,0,0,0,0.1,0l48.7-0.1&#10;&#9;&#9;&#9;c8.2,0,16.3-0.1,24.5-0.2c8.2-0.1,16.3-0.3,24.5-0.5c4.1-0.1,8.2-0.2,12.2-0.3l12.2-0.4c4.1-0.2,8.2-0.3,12.2-0.5&#10;&#9;&#9;&#9;c4.1-0.2,8.2-0.4,12.2-0.6c1.9-0.1,3.9-0.2,5.8-0.3c0.1,0.9,0.3,1.7,0.4,2.6c0.1,0.6,0.2,1.2,0.2,1.8c0,0.2,0,0.3,0,0.5&#10;&#9;&#9;&#9;c0,0,0,0,0,0c-3.4,0.1-6.8,0.2-10.2,0.2l0-0.1l-1.2,0L730.9,166.9z M774.4,165.5l-5.7,0.4l-5.7,0.3l-5.7,0.2&#10;&#9;&#9;&#9;c-1.8,0.1-3.6,0.1-5.5,0.2c0-0.2,0-0.3,0-0.5c0-0.6,0.1-1.2,0.1-1.8c0-0.9,0-1.8,0-2.6c1.8-0.1,3.6-0.2,5.5-0.4l3-0.2&#10;&#9;&#9;&#9;c1-0.1,2-0.1,3-0.2l6.1-0.3c4.1-0.2,8.2-0.5,12.3-1.3c2-0.4,4.1-0.9,6.1-1.6c1.9-0.7,3.8-1.5,5.5-2.6l18.8-2.5&#10;&#9;&#9;&#9;c-0.1,0.1-0.2,0.2-0.3,0.3c-0.5,0.5-1.1,1-1.6,1.4c-0.6,0.4-1.1,0.9-1.7,1.3c-0.6,0.4-1.2,0.8-1.8,1.1c-0.3,0.2-0.6,0.3-0.9,0.5&#10;&#9;&#9;&#9;c-0.3,0.2-0.6,0.3-0.9,0.5l-1,0.4c-0.3,0.1-0.7,0.2-1,0.4c-0.6,0.3-1.3,0.4-2,0.6c-0.7,0.1-1.3,0.3-2,0.4&#10;&#9;&#9;&#9;c-1.4,0.2-2.8,0.5-4.3,0.7l-4.3,0.8c-1.4,0.3-2.8,0.5-4.3,0.8l-1.1,0.2l-0.5,0.1l-0.2,0l0,0c0,0-0.1,0-0.1,0&#10;&#9;&#9;&#9;c-0.1,0-0.2,0.1-0.2,0.1c-0.1,0.1-0.2,0.2-0.3,0.3c-0.4,0.4-0.5,1.1-0.2,1.6c0.1,0.2,0.2,0.4,0.4,0.5&#10;&#9;&#9;&#9;C780.8,165.1,777.6,165.3,774.4,165.5z M813.4,153.8c-0.7,0.8-1.5,1.6-2.3,2.3c-0.4,0.4-0.8,0.7-1.2,1.1c-0.4,0.4-0.8,0.7-1.2,1&#10;&#9;&#9;&#9;c-0.3,0.2-0.6,0.5-0.7,0.9c-0.2,0.3-0.2,0.7-0.3,1c0,0.2,0,0.4,0,0.7l-2.6,0.3c-2.1,0.2-4.2,0.5-6.3,0.8c-1.3,0.2-2.6,0.3-3.9,0.5&#10;&#9;&#9;&#9;l0.4-0.1c1.4-0.3,2.8-0.7,4.2-1c0.7-0.2,1.4-0.4,2.2-0.6c0.7-0.3,1.4-0.5,2.1-0.8c0.3-0.2,0.7-0.3,1-0.5l1-0.5&#10;&#9;&#9;&#9;c0.3-0.2,0.6-0.4,0.9-0.6c0.3-0.2,0.6-0.4,0.9-0.6c0.6-0.4,1.2-0.9,1.7-1.4c0.6-0.5,1.1-1,1.6-1.5c0.7-0.7,1.3-1.4,1.9-2.2l1-0.1&#10;&#9;&#9;&#9;l-0.1,0c0.3,0,0.4-0.1,0.5-0.1c0.2,0,0.3-0.1,0.4-0.1c0.1,0,0.2-0.1,0.3-0.1c-0.1,0.1-0.2,0.3-0.3,0.4&#10;&#9;&#9;&#9;C814.2,153,813.8,153.4,813.4,153.8z M823.4,109.3c-0.1,1.6-0.1,3.3-0.2,4.9l-0.3,4.9l-0.3,4.9c-0.1,1.6-0.3,3.2-0.5,4.8&#10;&#9;&#9;&#9;c-0.2,1.6-0.5,3.2-0.8,4.8c-0.3,1.6-0.7,3.1-1.1,4.7c-0.4,1.5-0.9,3.1-1.5,4.5l0,0.1l0,0.1l-0.4,1.2c-0.1,0.2-0.1,0.4-0.2,0.6&#10;&#9;&#9;&#9;l-0.2,0.6c-0.1,0.2-0.2,0.4-0.3,0.6l-0.3,0.6c-0.2,0.4-0.4,0.7-0.6,1.1c-0.1,0.2-0.2,0.3-0.3,0.5l-0.4,0.5&#10;&#9;&#9;&#9;c-0.1,0.2-0.3,0.3-0.4,0.4c-0.1,0.2-0.3,0.3-0.4,0.4c-0.1,0.1-0.3,0.2-0.4,0.4c-0.2,0.1-0.3,0.2-0.5,0.3c-0.2,0.1-0.3,0.2-0.5,0.2&#10;&#9;&#9;&#9;c-0.1,0-0.2,0-0.2,0.1c-0.1,0-0.2,0-0.1,0l-0.1,0l-17.4,2.4c0.6-0.6,1.2-1.2,1.7-1.8c0.3-0.4,0.6-0.7,0.9-1.1l0.9-1.1l0.9-1.1&#10;&#9;&#9;&#9;c0.3-0.4,0.5-0.8,0.8-1.2c0.3-0.4,0.5-0.8,0.8-1.2c0.2-0.4,0.5-0.8,0.7-1.2l0.7-1.3c0.2-0.4,0.4-0.8,0.6-1.3&#10;&#9;&#9;&#9;c0.2-0.4,0.4-0.9,0.6-1.3l0.5-1.3c0.2-0.4,0.3-0.9,0.5-1.4l0.4-1.3c0.3-0.7,0.5-1.3,0.7-1.9c0.2-0.7,0.4-1.3,0.6-2&#10;&#9;&#9;&#9;c0.4-1.3,0.7-2.6,0.9-4c0.1-0.7,0.3-1.3,0.4-2c0.1-0.7,0.2-1.3,0.3-2c0.1-0.7,0.2-1.3,0.2-2c0.1-0.7,0.1-1.3,0.2-2&#10;&#9;&#9;&#9;c0.1-1.3,0.2-2.7,0.3-4c0-1.3,0.1-2.7,0.1-4l0-8l0-8l0-1l0-1c0-0.7,0-1.3-0.1-2c-0.1-1.3-0.1-2.7-0.3-4c0-0.7-0.1-1.3-0.2-2&#10;&#9;&#9;&#9;c-0.1-0.7-0.1-1.3-0.2-2c-0.1-0.7-0.2-1.3-0.3-2c-0.1-0.7-0.2-1.3-0.4-2c-0.3-1.3-0.6-2.6-0.9-4c-0.2-0.7-0.4-1.3-0.6-2&#10;&#9;&#9;&#9;c-0.2-0.6-0.4-1.2-0.7-1.9l-0.4-1.3c-0.1-0.5-0.3-0.9-0.5-1.4l-0.5-1.3c-0.2-0.4-0.4-0.9-0.6-1.3c-0.2-0.4-0.4-0.9-0.6-1.3&#10;&#9;&#9;&#9;l-0.7-1.3c-0.2-0.4-0.5-0.8-0.7-1.2c-0.2-0.4-0.5-0.8-0.8-1.2c-0.3-0.4-0.5-0.8-0.8-1.2l-0.9-1.1l-0.9-1.1&#10;&#9;&#9;&#9;c-0.3-0.4-0.6-0.7-0.9-1.1c-0.6-0.6-1.1-1.2-1.7-1.8l17.4,2.4l0.1,0c-0.1,0,0.1,0,0.1,0c0.1,0,0.1,0,0.2,0.1&#10;&#9;&#9;&#9;c0.2,0.1,0.3,0.1,0.5,0.2c0.2,0.1,0.3,0.2,0.5,0.3c0.1,0.1,0.3,0.2,0.4,0.4c0.1,0.1,0.3,0.2,0.4,0.4c0.1,0.1,0.3,0.3,0.4,0.4&#10;&#9;&#9;&#9;l0.4,0.5c0.1,0.2,0.2,0.3,0.3,0.5c0.2,0.3,0.4,0.7,0.6,1.1l0.3,0.6c0.1,0.2,0.2,0.4,0.3,0.6l0.2,0.6c0.1,0.2,0.2,0.4,0.2,0.6&#10;&#9;&#9;&#9;l0.4,1.2l0,0.1l0,0.1c0.6,1.4,1,3,1.5,4.5c0.4,1.5,0.8,3.1,1.1,4.7c0.3,1.6,0.6,3.2,0.8,4.8c0.1,0.8,0.2,1.6,0.3,2.4&#10;&#9;&#9;&#9;c0.1,0.8,0.1,1.6,0.2,2.4c0.2,3.3,0.4,6.5,0.6,9.8c0.1,1.6,0.2,3.3,0.2,4.9l0.1,2.4c0,0.8,0,1.6,0,2.4&#10;&#9;&#9;&#9;C823.5,106,823.5,107.6,823.4,109.3z" transform="matrix(0.009374036453664303, 0.9168058037757874, -0.9168058037757874, 0.009374036453664303, 170.6742706298828, -428.31879711151123)"/><path d="M671.3,162.2L671.3,162.2L671.3,162.2C671.4,162.2,671.4,162.2,671.3,162.2C671.4,162.2,671.4,162.2,671.3,162.2&#10;&#9;&#9;&#9;C671.4,162.2,671.4,162.2,671.3,162.2C671.4,162.2,671.4,162.2,671.3,162.2z" transform="matrix(1, 0, 0, 1, -574.0885925292969, -26.38269329071045)"/>
<rect id="ee-background" x="0" y="0" width="172.833740234375" height="337.80401611328125" style="fill: white; fill-opacity: 0; pointer-events: none;"/></svg>